<svg width="125" height="24" viewBox="0 0 125 24" fill="none" xmlns="http://www.w3.org/2000/svg">
<path d="M10.1245 23.45C8.67445 23.45 7.33945 23.2 6.11945 22.7C4.89945 22.19 3.83945 21.45 2.93945 20.48C2.03945 19.51 1.33945 18.33 0.839453 16.94C0.339453 15.55 0.0894532 13.97 0.0894532 12.2C0.0894532 9.87 0.514453 7.87 1.36445 6.2C2.21445 4.52 3.39445 3.23 4.90445 2.33C6.41445 1.42 8.15445 0.964998 10.1245 0.964998C12.6645 0.964998 14.6895 1.555 16.1995 2.735C17.7195 3.915 18.7545 5.545 19.3045 7.625L16.1245 8.195C15.6845 6.905 14.9745 5.875 13.9945 5.105C13.0145 4.335 11.7845 3.945 10.3045 3.935C8.77445 3.925 7.49945 4.265 6.47945 4.955C5.46945 5.645 4.70945 6.615 4.19945 7.865C3.68945 9.105 3.42945 10.55 3.41945 12.2C3.40945 13.85 3.65945 15.295 4.16945 16.535C4.67945 17.765 5.44445 18.725 6.46445 19.415C7.49445 20.105 8.77445 20.455 10.3045 20.465C11.5345 20.485 12.5895 20.26 13.4695 19.79C14.3595 19.31 15.0645 18.61 15.5845 17.69C16.1045 16.77 16.4395 15.64 16.5895 14.3H12.3895V11.78H19.9195C19.9395 11.96 19.9545 12.2 19.9645 12.5C19.9745 12.79 19.9795 12.975 19.9795 13.055C19.9795 15.055 19.5945 16.84 18.8245 18.41C18.0545 19.98 16.9345 21.215 15.4645 22.115C13.9945 23.005 12.2145 23.45 10.1245 23.45ZM30.0041 23.45C28.3841 23.45 26.9791 23.085 25.7891 22.355C24.5991 21.625 23.6791 20.62 23.0291 19.34C22.3891 18.05 22.0691 16.565 22.0691 14.885C22.0691 13.195 22.3991 11.71 23.0591 10.43C23.7191 9.14 24.6441 8.14 25.8341 7.43C27.0241 6.71 28.4141 6.35 30.0041 6.35C31.6241 6.35 33.0291 6.715 34.2191 7.445C35.4091 8.175 36.3291 9.18 36.9791 10.46C37.6291 11.74 37.9541 13.215 37.9541 14.885C37.9541 16.575 37.6241 18.065 36.9641 19.355C36.3141 20.635 35.3941 21.64 34.2041 22.37C33.0141 23.09 31.6141 23.45 30.0041 23.45ZM30.0041 20.495C31.5541 20.495 32.7091 19.975 33.4691 18.935C34.2391 17.885 34.6241 16.535 34.6241 14.885C34.6241 13.195 34.2341 11.845 33.4541 10.835C32.6841 9.815 31.5341 9.305 30.0041 9.305C28.9541 9.305 28.0891 9.545 27.4091 10.025C26.7291 10.495 26.2241 11.15 25.8941 11.99C25.5641 12.82 25.3991 13.785 25.3991 14.885C25.3991 16.585 25.7891 17.945 26.5691 18.965C27.3491 19.985 28.4941 20.495 30.0041 20.495Z" fill="black"/>
<path d="M57.1804 23L56.7004 20.57C55.1804 22.53 53.2204 23.51 50.8204 23.51C47.6004 23.51 45.0204 22.43 43.0804 20.27C41.2204 18.21 40.2904 15.58 40.2904 12.38C40.2904 9.1 41.2204 6.42 43.0804 4.34C45.0004 2.16 47.5804 1.07 50.8204 1.07C53.1204 1.07 55.1104 1.72 56.7904 3.02C58.5904 4.42 59.6104 6.29 59.8504 8.63H55.3504C55.0904 7.47 54.5504 6.58 53.7304 5.96C52.9304 5.34 51.9604 5.03 50.8204 5.03C48.8404 5.03 47.3404 5.79 46.3204 7.31C45.4404 8.61 45.0004 10.3 45.0004 12.38C45.0004 14.38 45.4404 16.02 46.3204 17.3C47.3604 18.8 48.8604 19.55 50.8204 19.55C53.9404 19.55 55.6404 18.01 55.9204 14.93H51.1804V11.42H60.1804V23H57.1804ZM63.5341 23V7.49H67.5841V10.37H67.6441C68.0241 9.41 68.6841 8.62 69.6241 8C70.5641 7.38 71.5541 7.07 72.5941 7.07C72.9141 7.07 73.2241 7.12 73.5241 7.22V11.18C73.0841 11.08 72.5741 11.03 71.9941 11.03C69.1941 11.03 67.7941 12.69 67.7941 16.01V23H63.5341ZM89.8942 16.28H78.7042C78.8242 18.9 80.0942 20.21 82.5142 20.21C83.3342 20.21 84.0742 19.99 84.7342 19.55C85.3542 19.17 85.7342 18.72 85.8742 18.2H89.6242C88.4842 21.68 86.0642 23.42 82.3642 23.42C79.9442 23.42 78.0142 22.67 76.5742 21.17C75.1542 19.65 74.4442 17.68 74.4442 15.26C74.4442 12.9 75.1742 10.95 76.6342 9.41C78.1142 7.85 80.0242 7.07 82.3642 7.07C84.8842 7.07 86.8342 8.01 88.2142 9.89C89.4942 11.61 90.0542 13.74 89.8942 16.28ZM78.7042 13.58H85.6342C85.2342 11.38 84.1042 10.28 82.2442 10.28C81.0442 10.28 80.1242 10.68 79.4842 11.48C79.0042 12.08 78.7442 12.78 78.7042 13.58ZM107.121 16.28H95.9308C96.0508 18.9 97.3208 20.21 99.7408 20.21C100.561 20.21 101.301 19.99 101.961 19.55C102.581 19.17 102.961 18.72 103.101 18.2H106.851C105.711 21.68 103.291 23.42 99.5908 23.42C97.1708 23.42 95.2408 22.67 93.8008 21.17C92.3808 19.65 91.6708 17.68 91.6708 15.26C91.6708 12.9 92.4008 10.95 93.8608 9.41C95.3408 7.85 97.2508 7.07 99.5908 7.07C102.111 7.07 104.061 8.01 105.441 9.89C106.721 11.61 107.281 13.74 107.121 16.28ZM95.9308 13.58H102.861C102.461 11.38 101.331 10.28 99.4708 10.28C98.2708 10.28 97.3508 10.68 96.7108 11.48C96.2308 12.08 95.9708 12.78 95.9308 13.58ZM109.647 23V7.49H113.697V9.65H113.787C114.847 7.93 116.427 7.07 118.527 7.07C120.667 7.07 122.177 7.65 123.057 8.81C123.817 9.81 124.197 11.36 124.197 13.46V23H119.937V14.24C119.937 11.7 119.027 10.43 117.207 10.43C116.047 10.43 115.207 10.78 114.687 11.48C114.167 12.18 113.907 13.31 113.907 14.87V23H109.647Z" fill="#36794F"/>
</svg>
