<svg width="124" height="24" viewBox="0 0 124 24" fill="none" xmlns="http://www.w3.org/2000/svg">
<path d="M10.3881 23.45C8.93813 23.45 7.60313 23.2 6.38313 22.7C5.16313 22.19 4.10313 21.45 3.20312 20.48C2.30313 19.51 1.60313 18.33 1.10313 16.94C0.603125 15.55 0.353125 13.97 0.353125 12.2C0.353125 9.87 0.778125 7.87 1.62813 6.2C2.47813 4.52 3.65813 3.23 5.16813 2.33C6.67813 1.42 8.41813 0.964998 10.3881 0.964998C12.9281 0.964998 14.9531 1.555 16.4631 2.735C17.9831 3.915 19.0181 5.545 19.5681 7.625L16.3881 8.195C15.9481 6.905 15.2381 5.875 14.2581 5.105C13.2781 4.335 12.0481 3.945 10.5681 3.935C9.03813 3.925 7.76313 4.265 6.74313 4.955C5.73313 5.645 4.97313 6.615 4.46313 7.865C3.95313 9.105 3.69313 10.55 3.68313 12.2C3.67313 13.85 3.92313 15.295 4.43313 16.535C4.94313 17.765 5.70813 18.725 6.72813 19.415C7.75813 20.105 9.03813 20.455 10.5681 20.465C11.7981 20.485 12.8531 20.26 13.7331 19.79C14.6231 19.31 15.3281 18.61 15.8481 17.69C16.3681 16.77 16.7031 15.64 16.8531 14.3H12.6531V11.78H20.1831C20.2031 11.96 20.2181 12.2 20.2281 12.5C20.2381 12.79 20.2431 12.975 20.2431 13.055C20.2431 15.055 19.8581 16.84 19.0881 18.41C18.3181 19.98 17.1981 21.215 15.7281 22.115C14.2581 23.005 12.4781 23.45 10.3881 23.45ZM30.2678 23.45C28.6478 23.45 27.2428 23.085 26.0528 22.355C24.8628 21.625 23.9428 20.62 23.2928 19.34C22.6528 18.05 22.3328 16.565 22.3328 14.885C22.3328 13.195 22.6628 11.71 23.3228 10.43C23.9828 9.14 24.9078 8.14 26.0978 7.43C27.2878 6.71 28.6778 6.35 30.2678 6.35C31.8878 6.35 33.2928 6.715 34.4828 7.445C35.6728 8.175 36.5928 9.18 37.2428 10.46C37.8928 11.74 38.2178 13.215 38.2178 14.885C38.2178 16.575 37.8878 18.065 37.2278 19.355C36.5778 20.635 35.6578 21.64 34.4678 22.37C33.2778 23.09 31.8778 23.45 30.2678 23.45ZM30.2678 20.495C31.8178 20.495 32.9728 19.975 33.7328 18.935C34.5028 17.885 34.8878 16.535 34.8878 14.885C34.8878 13.195 34.4978 11.845 33.7178 10.835C32.9478 9.815 31.7978 9.305 30.2678 9.305C29.2178 9.305 28.3528 9.545 27.6728 10.025C26.9928 10.495 26.4878 11.15 26.1578 11.99C25.8278 12.82 25.6628 13.785 25.6628 14.885C25.6628 16.585 26.0528 17.945 26.8328 18.965C27.6128 19.985 28.7578 20.495 30.2678 20.495Z" fill="#FBFBFB"/>
<path d="M56.9641 20.57L57.4441 23H60.4441V11.42H51.4441V14.93H56.1841C56.0441 16.43 55.5441 17.58 54.6841 18.38C53.8441 19.16 52.6441 19.55 51.0841 19.55C50.0241 19.55 49.1241 19.35 48.3841 18.95C47.6441 18.53 47.0441 17.98 46.5841 17.3C46.1241 16.62 45.7841 15.86 45.5641 15.02C45.3641 14.16 45.2641 13.28 45.2641 12.38C45.2641 11.44 45.3641 10.53 45.5641 9.65C45.7841 8.77 46.1241 7.99 46.5841 7.31C47.0441 6.61 47.6441 6.06 48.3841 5.66C49.1241 5.24 50.0241 5.03 51.0841 5.03C52.2241 5.03 53.1941 5.33 53.9941 5.93C54.7941 6.53 55.3341 7.43 55.6141 8.63H60.1141C59.9941 7.41 59.6641 6.33 59.1241 5.39C58.5841 4.45 57.8941 3.66 57.0541 3.02C56.2341 2.38 55.3041 1.9 54.2641 1.58C53.2441 1.24 52.1841 1.07 51.0841 1.07C49.4441 1.07 47.9641 1.36 46.6441 1.94C45.3441 2.52 44.2441 3.32 43.3441 4.34C42.4441 5.36 41.7541 6.56 41.2741 7.94C40.7941 9.3 40.5541 10.78 40.5541 12.38C40.5541 13.94 40.7941 15.4 41.2741 16.76C41.7541 18.1 42.4441 19.27 43.3441 20.27C44.2441 21.27 45.3441 22.06 46.6441 22.64C47.9641 23.2 49.4441 23.48 51.0841 23.48C52.1241 23.48 53.1541 23.27 54.1741 22.85C55.1941 22.41 56.1241 21.65 56.9641 20.57ZM63.7977 7.49V23H68.0577V16.01C68.0577 15.31 68.1277 14.66 68.2677 14.06C68.4077 13.46 68.6377 12.94 68.9577 12.5C69.2977 12.04 69.7377 11.68 70.2777 11.42C70.8177 11.16 71.4777 11.03 72.2577 11.03C72.5177 11.03 72.7877 11.05 73.0677 11.09C73.3477 11.11 73.5877 11.14 73.7877 11.18V7.22C73.4477 7.12 73.1377 7.07 72.8577 7.07C72.3177 7.07 71.7977 7.15 71.2977 7.31C70.7977 7.47 70.3277 7.7 69.8877 8C69.4477 8.28 69.0577 8.63 68.7177 9.05C68.3777 9.45 68.1077 9.89 67.9077 10.37H67.8477V7.49H63.7977ZM85.3705 13.58H78.4405C78.4605 13.28 78.5205 12.94 78.6205 12.56C78.7405 12.18 78.9305 11.82 79.1905 11.48C79.4705 11.14 79.8305 10.86 80.2705 10.64C80.7305 10.4 81.3005 10.28 81.9805 10.28C83.0205 10.28 83.7905 10.56 84.2905 11.12C84.8105 11.68 85.1705 12.5 85.3705 13.58ZM78.4405 16.28H89.6305C89.7105 15.08 89.6105 13.93 89.3305 12.83C89.0505 11.73 88.5905 10.75 87.9505 9.89C87.3305 9.03 86.5305 8.35 85.5505 7.85C84.5705 7.33 83.4205 7.07 82.1005 7.07C80.9205 7.07 79.8405 7.28 78.8605 7.7C77.9005 8.12 77.0705 8.7 76.3705 9.44C75.6705 10.16 75.1305 11.02 74.7505 12.02C74.3705 13.02 74.1805 14.1 74.1805 15.26C74.1805 16.46 74.3605 17.56 74.7205 18.56C75.1005 19.56 75.6305 20.42 76.3105 21.14C76.9905 21.86 77.8205 22.42 78.8005 22.82C79.7805 23.2 80.8805 23.39 82.1005 23.39C83.8605 23.39 85.3605 22.99 86.6005 22.19C87.8405 21.39 88.7605 20.06 89.3605 18.2H85.6105C85.4705 18.68 85.0905 19.14 84.4705 19.58C83.8505 20 83.1105 20.21 82.2505 20.21C81.0505 20.21 80.1305 19.9 79.4905 19.28C78.8505 18.66 78.5005 17.66 78.4405 16.28ZM102.597 13.58H95.6671C95.6871 13.28 95.7471 12.94 95.8471 12.56C95.9671 12.18 96.1571 11.82 96.4171 11.48C96.6971 11.14 97.0571 10.86 97.4971 10.64C97.9571 10.4 98.5271 10.28 99.2071 10.28C100.247 10.28 101.017 10.56 101.517 11.12C102.037 11.68 102.397 12.5 102.597 13.58ZM95.6671 16.28H106.857C106.937 15.08 106.837 13.93 106.557 12.83C106.277 11.73 105.817 10.75 105.177 9.89C104.557 9.03 103.757 8.35 102.777 7.85C101.797 7.33 100.647 7.07 99.3271 7.07C98.1471 7.07 97.0671 7.28 96.0871 7.7C95.1271 8.12 94.2971 8.7 93.5971 9.44C92.8971 10.16 92.3571 11.02 91.9771 12.02C91.5971 13.02 91.4071 14.1 91.4071 15.26C91.4071 16.46 91.5871 17.56 91.9471 18.56C92.3271 19.56 92.8571 20.42 93.5371 21.14C94.2171 21.86 95.0471 22.42 96.0271 22.82C97.0071 23.2 98.1071 23.39 99.3271 23.39C101.087 23.39 102.587 22.99 103.827 22.19C105.067 21.39 105.987 20.06 106.587 18.2H102.837C102.697 18.68 102.317 19.14 101.697 19.58C101.077 20 100.337 20.21 99.4771 20.21C98.2771 20.21 97.3571 19.9 96.7171 19.28C96.0771 18.66 95.7271 17.66 95.6671 16.28ZM109.384 7.49V23H113.644V14.87C113.644 13.29 113.904 12.16 114.424 11.48C114.944 10.78 115.784 10.43 116.944 10.43C117.964 10.43 118.674 10.75 119.074 11.39C119.474 12.01 119.674 12.96 119.674 14.24V23H123.934V13.46C123.934 12.5 123.844 11.63 123.664 10.85C123.504 10.05 123.214 9.38 122.794 8.84C122.374 8.28 121.794 7.85 121.054 7.55C120.334 7.23 119.404 7.07 118.264 7.07C117.364 7.07 116.484 7.28 115.624 7.7C114.764 8.1 114.064 8.75 113.524 9.65H113.434V7.49H109.384Z" fill="white"/>
</svg>
