<svg width="36" height="36" viewBox="0 0 36 36" fill="none" xmlns="http://www.w3.org/2000/svg">
<path d="M34.6666 26.2V31.2C34.6685 31.6641 34.5734 32.1236 34.3875 32.5489C34.2015 32.9742 33.9288 33.3559 33.5868 33.6697C33.2447 33.9835 32.8409 34.2224 32.4012 34.3711C31.9615 34.5198 31.4956 34.5751 31.0333 34.5333C25.9047 33.976 20.9783 32.2235 16.65 29.4166C12.623 26.8577 9.20886 23.4436 6.64997 19.4166C3.83327 15.0686 2.08037 10.1183 1.5333 4.96662C1.49165 4.50574 1.54643 4.04123 1.69414 3.60267C1.84185 3.16411 2.07925 2.76111 2.39125 2.41933C2.70324 2.07755 3.08298 1.80447 3.50629 1.61749C3.9296 1.43052 4.3872 1.33373 4.84997 1.33329H9.84997C10.6588 1.32533 11.443 1.61176 12.0562 2.13918C12.6695 2.6666 13.0701 3.39904 13.1833 4.19996C13.3943 5.80007 13.7857 7.37117 14.35 8.88329C14.5742 9.47983 14.6227 10.1281 14.4898 10.7514C14.3569 11.3747 14.0481 11.9468 13.6 12.4L11.4833 14.5166C13.8559 18.6892 17.3107 22.144 21.4833 24.5166L23.6 22.4C24.0531 21.9519 24.6252 21.643 25.2485 21.5101C25.8718 21.3772 26.5201 21.4257 27.1166 21.65C28.6288 22.2142 30.1999 22.6056 31.8 22.8166C32.6096 22.9308 33.349 23.3386 33.8775 23.9624C34.4061 24.5863 34.6869 25.3826 34.6666 26.2Z" stroke="white" stroke-width="2" stroke-linecap="round" stroke-linejoin="round"/>
</svg>
